<?xml version="1.0" standalone="no"?>
<!DOCTYPE svg PUBLIC "-//W3C//DTD SVG 20010904//EN"
 "http://www.w3.org/TR/2001/REC-SVG-20010904/DTD/svg10.dtd">
<svg version="1.0" xmlns="http://www.w3.org/2000/svg"
 width="512.000000pt" height="512.000000pt" viewBox="0 0 512.000000 512.000000"
 preserveAspectRatio="xMidYMid meet">

<g transform="translate(0.000000,512.000000) scale(0.100000,-0.100000)"
fill="#000000" stroke="none">
<path d="M570 4586 c-126 -34 -238 -127 -293 -243 -30 -64 -32 -74 -32 -183 0
-109 2 -119 32 -183 44 -93 119 -169 212 -215 l75 -37 2010 -3 c1989 -2 2012
-2 2077 18 75 22 168 86 212 143 136 178 124 417 -28 576 -30 32 -77 70 -103
84 -111 60 18 57 -2142 56 -1526 0 -1985 -3 -2020 -13z"/>
<path d="M545 2982 c-120 -42 -214 -125 -268 -240 -30 -63 -32 -73 -32 -182 0
-109 2 -119 32 -183 56 -119 178 -217 304 -246 29 -7 723 -11 2014 -11 2155 0
2026 -3 2137 57 65 35 153 130 184 198 38 81 51 170 37 249 -12 73 -48 158
-90 213 -43 56 -137 120 -210 143 -64 20 -89 20 -2062 20 -1867 -1 -1999 -2
-2046 -18z"/>
<path d="M545 1382 c-120 -42 -214 -125 -268 -240 -30 -63 -32 -73 -32 -182 0
-109 2 -119 32 -183 56 -119 178 -217 304 -246 61 -14 3897 -14 3958 0 128 29
247 126 304 246 30 64 32 74 32 183 0 109 -2 119 -32 183 -44 93 -119 169
-212 215 l-75 37 -1980 2 c-1859 2 -1984 1 -2031 -15z"/>
</g>
</svg>
